<?xml version="1.0" encoding="UTF-8" ?>
<!-- Generated by Pixelmator Pro 3.8 -->
<svg
    width="1000"
    height="1000"
    viewBox="0 0 1000 1000"
    xmlns="http://www.w3.org/2000/svg"
>
    <path
        id="Rectangle"
        fill="#202020"
        fill-rule="evenodd"
        stroke="none"
        d="M 0 1000 L 1000 1000 L 1000 0 L 0 0 Z"
    />
    <g id="logo">
        <path
            id="path1"
            fill="#f4f5f8"
            fill-rule="evenodd"
            stroke="none"
            d="M 418.75 561.75 C 418.75 572.519531 427.480438 581.25 438.25 581.25 L 805.5 581.25 C 816.269531 581.25 825 572.519531 825 561.75 L 825 194.5 C 825 183.730469 816.269531 175 805.5 175 L 438.25 175 C 427.480438 175 418.75 183.730469 418.75 194.5 Z"
        />
        <path
            id="Rectangle-copy"
            fill="#f4f5f8"
            fill-rule="evenodd"
            stroke="none"
            d="M 175 805.5 C 175 816.269531 183.730453 825 194.5 825 L 358.625 825 C 369.394531 825 378.125 816.269531 378.125 805.5 L 378.125 641.375 C 378.125 630.605469 369.394531 621.875 358.625 621.875 L 194.5 621.875 C 183.730453 621.875 175 630.605469 175 641.375 Z"
        />
        <path
            id="Rectangle-copy-2"
            fill="#f4f5f8"
            fill-rule="evenodd"
            stroke="none"
            d="M 175 358.625 C 175 369.394531 183.730453 378.125 194.5 378.125 L 358.625 378.125 C 369.394531 378.125 378.125 369.394531 378.125 358.625 L 378.125 194.5 C 378.125 183.730469 369.394531 175 358.625 175 L 194.5 175 C 183.730453 175 175 183.730469 175 194.5 Z"
        />
        <path
            id="Rectangle-copy-4"
            fill="#f4f5f8"
            fill-rule="evenodd"
            stroke="none"
            d="M 621.875 805.5 C 621.875 816.269531 630.605469 825 641.375 825 L 805.5 825 C 816.269531 825 825 816.269531 825 805.5 L 825 641.375 C 825 630.605469 816.269531 621.875 805.5 621.875 L 641.375 621.875 C 630.605469 621.875 621.875 630.605469 621.875 641.375 Z"
        />
        <path
            id="Rectangle-copy-3"
            fill="#f4f5f8"
            fill-rule="evenodd"
            stroke="none"
            d="M 175 561.75 C 175 572.519531 183.730453 581.25 194.5 581.25 L 358.625 581.25 C 369.394531 581.25 378.125 572.519531 378.125 561.75 L 378.125 438.25 C 378.125 427.480469 369.394531 418.75 358.625 418.75 L 194.5 418.75 C 183.730453 418.75 175 427.480469 175 438.25 Z"
        />
        <path
            id="Rectangle-copy-5"
            fill="#f4f5f8"
            fill-rule="evenodd"
            stroke="none"
            d="M 418.75 805.5 C 418.75 816.269531 427.480438 825 438.25 825 L 561.75 825 C 572.519531 825 581.25 816.269531 581.25 805.5 L 581.25 641.375 C 581.25 630.605469 572.519531 621.875 561.75 621.875 L 438.25 621.875 C 427.480438 621.875 418.75 630.605469 418.75 641.375 Z"
        />
    </g>
</svg>
